<svg width="20" height="20" viewBox="0 0 20 20" fill="none" xmlns="http://www.w3.org/2000/svg">
<path d="M0.793327 8.34442C-0.643465 9.11803 0.194664 9.78315 0.793327 10.019C3.5868 11.0609 6.71985 10.5914 9.08528 8.77656L10.6322 7.58966L15.0709 4.24285C15.675 3.78738 16.8199 3.39526 16.3716 4.00464L9.12752 11.8916C8.32034 12.7705 7.84042 13.9005 7.76849 15.0916L7.59796 17.9153C7.56789 18.4133 7.94244 18.8152 8.27012 18.4391C9.64015 16.8485 12.0513 16.6985 13.6079 18.107L15.4346 19.7599C16.4653 20.458 16.8141 19.469 16.8596 18.8872L19.9831 1.48099C20.1549 -0.330394 18.9745 -0.107116 18.3628 0.230945L0.793327 8.34442Z" fill="#D4AD75"/>
</svg>
